<svg xmlns="http://www.w3.org/2000/svg" viewBox="0 0 180.15 144.35"><path fill="#755b34" d="M180.14 140.15a31.46 31.46 0 0 1-4.92 2.18c-1.42.51-3.04.97-4.86 1.39s-3.71.63-5.68.63c-3.2 0-6.08-.57-8.63-1.69a17.94 17.94 0 0 1-6.47-4.78 21.5 21.5 0 0 1-4.07-7.43c-.95-2.89-1.42-6.11-1.42-9.64s.42-7.11 1.26-11.17 1.93-8.24 3.28-12.53c1.35-4.3 2.87-8.59 4.56-12.89s3.4-8.38 5.13-12.26a371.34 371.34 0 0 1 8.98-18.71c-2.04 2.33-4.37 5.02-6.99 8.06s-5.42 6.37-8.38 9.99a651.91 651.91 0 0 0-9.26 11.58 558.52 558.52 0 0 0-19.38 26.38c-3.2 4.64-6.26 9.31-9.18 14.01l-2.62-.87a151.4 151.4 0 0 1 2.7-17.67c1.26-5.84 2.68-11.47 4.26-16.88s3.26-10.49 5.02-15.24c1.77-4.75 3.45-9 5.05-12.75a171.8 171.8 0 0 0-7.29 10.9c-2.42 3.91-4.87 7.94-7.35 12.07s-5.02 8.28-7.65 12.45a194.86 194.86 0 0 1-8.19 12.02 117.61 117.61 0 0 1-8.98 10.76 63.54 63.54 0 0 1-10.05 8.68c-3.55 2.46-7.34 4.4-11.36 5.82s-8.33 2.13-12.92 2.13c-3.53 0-6.74-.53-9.61-1.58a22.74 22.74 0 0 1-7.4-4.34 19.07 19.07 0 0 1-6.42-14.5 20.5 20.5 0 0 1 4.92-13.68A23.7 23.7 0 0 1 41.44 96c1.98-1.29 4.07-2.36 6.25-3.2s4.4-1.46 6.64-1.86 4.38-.6 6.42-.6c4.22 0 8.27.5 12.12 1.5a33.8 33.8 0 0 1 11.14 5.32l-1.91 2.13-1.42-1.01c-.91-.64-2.22-1.34-3.93-2.1s-3.83-1.46-6.36-2.08-5.42-.93-8.66-.93-6.16.42-9.09 1.26-5.52 2.1-7.76 3.8-4.03 3.82-5.38 6.39-2.02 5.58-2.02 9.04c0 2.48.48 4.77 1.45 6.88.96 2.11 2.3 3.94 4.01 5.49s3.77 2.76 6.17 3.63 5.06 1.31 7.97 1.31c4.37 0 8.56-.93 12.56-2.79 4.01-1.86 7.87-4.37 11.58-7.54s7.29-6.86 10.73-11.09c3.44-4.22 6.75-8.68 9.94-13.38s6.27-9.52 9.26-14.47c2.98-4.95 5.88-9.73 8.68-14.34s5.53-8.92 8.19-12.94 5.26-7.49 7.81-10.4l2.46 1.47a1136.88 1136.88 0 0 0-9.36 29.87 324.8 324.8 0 0 0-2.73 9.8l-1.04 3.85a155.48 155.48 0 0 1-2.75 8.98l-2.18 6.5c-.84 2.46-1.86 5.36-3.06 8.71 3.06-4.62 6.2-9.18 9.42-13.65a557.24 557.24 0 0 1 19.06-25.02 722.5 722.5 0 0 1 16.33-19.58 345.5 345.5 0 0 1 6.04-6.85l4.01-4.42 1.5-1.64 2.29 1.69a2215.37 2215.37 0 0 0-12.48 31.57c-1.95 5.06-3.76 9.94-5.43 14.64s-3.13 9.09-4.37 13.19-2.21 7.83-2.92 11.2-1.06 6.25-1.06 8.66c0 2.84.34 5.41 1.01 7.7s1.65 4.24 2.92 5.84 2.85 2.83 4.72 3.69c1.88.86 4 1.28 6.36 1.28 1.78 0 3.52-.2 5.22-.6 1.69-.4 3.19-.84 4.51-1.31 1.31-.47 2.37-.91 3.17-1.31s1.22-.6 1.26-.6l1.42 2.46zm-67.35-61.39c0-3.39.42-7.11 1.26-11.17s1.93-8.24 3.28-12.53c1.35-4.3 2.87-8.59 4.56-12.89s3.4-8.38 5.13-12.26A371.34 371.34 0 0 1 136 11.2c-2.04 2.33-4.37 5.02-6.99 8.06s-5.42 6.37-8.38 9.99a651.91 651.91 0 0 0-9.26 11.58 558.52 558.52 0 0 0-19.38 26.38c-3.2 4.64-6.26 9.31-9.18 14.01l-2.62-.87a151.4 151.4 0 0 1 2.7-17.67c1.26-5.84 2.68-11.47 4.26-16.88s3.26-10.49 5.02-15.24c1.77-4.75 3.45-9 5.05-12.75a171.8 171.8 0 0 0-7.29 10.9c-2.42 3.91-4.87 7.94-7.35 12.07s-5.02 8.28-7.65 12.45a194.86 194.86 0 0 1-8.19 12.02 117.61 117.61 0 0 1-8.98 10.76 63.54 63.54 0 0 1-10.05 8.68c-3.55 2.46-7.34 4.4-11.36 5.82s-8.33 2.13-12.92 2.13c-3.53 0-6.74-.53-9.61-1.58a22.74 22.74 0 0 1-7.4-4.34A19.07 19.07 0 0 1 0 72.22a20.5 20.5 0 0 1 4.92-13.68 23.7 23.7 0 0 1 5.22-4.59c1.98-1.29 4.07-2.36 6.25-3.2s4.4-1.46 6.64-1.86 4.38-.6 6.42-.6c4.22 0 8.27.5 12.13 1.5s7.57 2.78 11.14 5.32l-1.91 2.13-1.42-1.01c-.91-.64-2.22-1.34-3.93-2.1s-3.83-1.46-6.36-2.08-5.42-.93-8.66-.93-6.16.42-9.09 1.26-5.52 2.1-7.76 3.8c-2.24 1.69-4.03 3.82-5.38 6.39s-2.02 5.58-2.02 9.04c0 2.48.48 4.77 1.45 6.88.96 2.11 2.3 3.94 4.01 5.49s3.77 2.76 6.17 3.63 5.06 1.31 7.97 1.31c4.37 0 8.56-.93 12.56-2.79s7.86-4.37 11.58-7.54 7.29-6.86 10.73-11.09c3.44-4.22 6.75-8.68 9.94-13.38s6.27-9.52 9.26-14.47c2.98-4.95 5.88-9.73 8.68-14.34s5.53-8.92 8.19-12.94 5.26-7.49 7.81-10.4L107 3.45a1136.88 1136.88 0 0 0-9.36 29.87 324.8 324.8 0 0 0-2.73 9.8l-1.04 3.85a155.48 155.48 0 0 1-2.75 8.98l-2.18 6.5c-.84 2.46-1.86 5.36-3.06 8.71 3.06-4.62 6.2-9.18 9.42-13.65a557.24 557.24 0 0 1 19.06-25.02 722.5 722.5 0 0 1 16.33-19.58 345.5 345.5 0 0 1 6.04-6.85l4.01-4.42 1.5-1.64 2.29 1.69a2215.37 2215.37 0 0 0-12.48 31.57c-1.95 5.06-3.76 9.94-5.43 14.64s-3.13 9.09-4.37 13.19-2.21 7.83-2.92 11.2"/></svg>