<svg xmlns="http://www.w3.org/2000/svg" viewBox="0 0 683 152.8"><path d="m552.9 104.4-19.2 8.1c-3.3 1.4-6.5 3-9.9 4-.6.2-2.2-1.8-2.7-3.1-.2-.6 1-1.8 1.6-2.7l2.3-4c-2.1.1-4.7-.6-6.3.4-3.5 2.2-6.4 5.3-9.8 7.7-.9.7-2.7.2-4.1.3.2-1.3.2-2.7.6-4 .2-.7 1.1-1.1 1.6-1.7l2.9-3.5c-2.5.1-5.4-.7-7.3.3-7.1 3.8-13.7 8.3-20.7 12.3-2.5 1.4-5.1 1.3-4.6-2.9l-.2-.9c-.5.2-1 .3-1.4.6-3.1 1.7-6.1 3.7-9.4 5.1-1.1.5-2.7-.3-4.1-.6.6-1.2.9-2.9 1.9-3.6 6-4.2 12.2-8.1 18.3-12.1.3-.2.5-.7.7-1.1l-1-.5c-10.3-3.7-19.9-.3-28.7 4.1-4.6 2.3-7.7 7.4-11.7 10.9-2.3 2-5.2 3.5-8 4.9-.5.3-2.2-.5-2.3-1.1a4 4 0 0 1 .5-3c1.2-1.8 2.8-3.3 4.2-5l-5.1 3.9c-2.4 1.9-4.6 4-7.1 5.8-.7.5-2.1.2-3.2.2 0-1.2-.6-2.7 0-3.4 3.9-5.7 8.1-11.3 12.2-16.9l3.4-4.6.4-1.1-1.3.7-28.1 23.7a12 12 0 0 1-4.9 2.8c-1.1.2-3.7-1.1-3.7-1.7 0-4.1-1.8-1.1-2.6-.7-5.9 2.6-11.6 5.7-17.7 7.7-3.8 1.3-6.6-1-7.1-5.4 0-.4-.9-.9-1.4-1-1.5-.2-2.9-.2-4.4-.2.7-1.1 1.2-2.2 2-3.2 5.9-7.1 11.7-14.3 17.9-21.2 5-5.6 10.5-10.8 15.8-16.2a20 20 0 0 0 1.9-2.2l-2.4 1.2c-10.2 6-20 13.1-30.8 17.8-10.7 4.6-17.2 13.6-25.7 20.5-1.2.9-2 2.4-2.9 3.6l4.7-1.6 5-2.1-2.9 4.7c-2.4 3.7-5.7 3.7-9.8 3.3-1.9-.2-4.4 2.2-6.1 3.9-2.6 2.5-4.7 5.5-7.2 8.1-.6.6-1.9.4-2.9.6-.1-1.1-.6-2.7-.1-3.3 3.1-3.9 6.5-7.5 9.5-11.3.6-.8.3-2.4.4-3.6-.8.2-1.7.2-2.3.6-1.9 1.2-3.5 2.9-5.5 3.7-1.4.5-3.2-.1-4.8-.2.4-2 .2-4.9 1.4-5.8 5.9-4.4 11.8-9.3 18.5-12a68.7 68.7 0 0 0 26.7-21c10.5-12.5 22-24 32.7-36.3 3.6-4 6.5-8.8 9-13.6 2-3.9-.9-7-5.8-6.3a49.6 49.6 0 0 0-29 14.4c-2.1 2.1-4.2 4.3-6.5 6.3-.8.7-1.9 1-2.8 1.4.1-1.2-.2-2.7.4-3.4 3.6-4 6.9-8.7 11.4-11.4 7.4-4.3 15.5-7.7 23.5-10.7 7.9-2.9 13 1.2 12.9 9.4l.1.7 1.1-.6 13.9-9.3c4.1-2.7 9.3-3.9 12.1.1a18 18 0 0 1 2.1 12.7c-2.3 11.1-11.1 17.8-19.1 24.8-3.8 3.3-7.8 6.3-11.7 9.5-.2.2-.2.6-.2 1 4.5.6 1.6 3 .7 4-9.4 11.3-19 22.6-28.6 33.8-1.3 1.5-3.3 2.5-4.4 4.2-1.2 1.9-1.7 4.3-2.3 6.5-.1.3 1.9 1.6 2.7 1.3 3.8-1.2 7.8-2.2 11.2-4.3 6.3-4 12.3-8.6 18.3-12.9l1-1.1c-.5.1-1.1 0-1.6.2-4.8 1.4-9.5 3-14.4 4.1-1 .2-2.3-1.2-3.5-1.9 1-.9 1.9-2 3.1-2.5a2904 2904 0 0 1 25.9-11.3c.2-.1.2-.4.4-.6l-1.3-.4c-1.9-.4-3.9-.5-5.6-1.3-.5-.2-.2-3.6 0-3.6 3-.4 6.2-1.1 9.1-.5 4.8.9 7.6-.5 10.4-4.5 3.6-5.1 8.2-9.5 12.3-14.3 1.6-1.8 2.9-3.9 4.6-5.7.5-.5 1.6-.4 2.4-.6 0 .8.4 1.9 0 2.4-4.4 6-9 11.9-13.5 17.8l-.7 1.2 1.4-.5a157 157 0 0 0 45.7-33.8c4.5-4.8 7.5-10.9 11.3-16.4.5-.7 1.4-1.2 2.1-1.8-.1.8-.1 1.7-.4 2.5-5.6 17.2-19 27.7-32.8 37.7-7.9 5.7-16.5 10.4-24.8 15.6-.5.3-1 .9-1.5 1.3.6.1 1.3.4 1.8.3l12.7-2.1c.3-.1.7-.3.9-.2 9.3 4 11.9-4.7 15.9-9.2 13.6-15 26.7-30.4 39.8-45.9 3.9-4.6 6.8-10 9.9-15.2.5-.8 0-2.2-.1-3.3l-2.3 2-14.2 12.1c-.4.4-1.3.1-2 .2.2-.6.2-1.3.6-1.7l17.2-17.6c.9-.9 2.9-1.9 3.8-1.5 1.1.4 2 2.3 2.2 3.7.9 7.2-3.1 12.6-6.9 18-2.6 3.7-5.5 7.3-8.2 11l-.7 1.3 1.4-.5c4.6-1.9 9-4.2 13.7-5.6 4.8-1.5 9.9-1 12.9 3.5 2.9 4.5.2 8.9-3 12-7.3 6.8-15 13.4-22.9 19.6-6.3 5-13.2 9.2-19.7 13.8-.4.3-.6.8-.8 1.2l1.2.5 8.6 4.4c.6.3 1.8.3 2.2-.1 5.2-4.3 10.1-8.8 15.5-12.9 1.7-1.3 4.3-1.3 6.5-1.9-.6 1.8-.6 4.1-1.8 5.3-3.1 3.1-6.6 5.7-10 8.5-.5.4-.9 1-1.4 1.6.7.1 1.5.5 2 .2 4.9-2.7 9.9-5.3 14.5-8.4 8.2-5.5 16-11.4 24.1-17 .8-.5 2.2-.2 3.3-.2-.2 1.2-.1 2.8-.8 3.5-2.6 2.5-5.6 4.6-8.3 7.2l-13.6 13.4c-.2.2-.1.5-.2.8l1.2-.5 22.1-18c2.7-2.2 5.2-4.6 7.9-6.6.7-.5 2.1-.4 2.9 0 .4.1.6 2 .1 2.5-5.5 6.9-11.2 13.7-16.8 20.5l-1.2 1.5c.6.2 1.3.6 1.9.5 18.3-1 36.7-1.4 54.9-3.4 18.5-2 36.8-5.5 55.1-8.7 6.5-1.1 12.7-3.5 19.1-5.1 1.3-.3 3.8.3 4.2 1.2.7 1.6.8 3.4-2.4 4-12.2 2.2-24.3 5.8-36.6 7.4-24.1 3.2-48.3 5.6-72.5 8-8.9.9-18 .2-26.9 1.3-3.1.4-5.9 4-8.8 6.2.7.3 1.4.9 1.9.8 7.1-1.7 14.2-3.6 21.4-5.2 3.3-.7 6.7-1 10.1-1.1 1 0 2.3 1.2 2.8 2.2.3.6-.4 2.4-1.1 2.7-5.5 2-11.2 3.8-16.8 5.6a9.8 9.8 0 0 0-.6-2.9zM438.3 35.1c-.7-1.3-1.4-4.4-2.9-4.9-2-.7-4.9.3-7 1.4a41 41 0 0 0-8.4 5.9c-6 5.5-12.4 10.8-17.6 17-10.9 12.9-21.1 26.4-31.5 39.7l-.4.8c.4 0 .8.2 1.1 0 3.2-1.7 6.7-3.2 9.6-5.3 15.6-11.6 31.3-23.2 46.5-35.3a28.3 28.3 0 0 0 10.6-19.3zm83 6.2-.1-.5c-.6.2-1.2.2-1.7.5-6.5 4-13.9 7.1-19.3 12.3-12.3 11.7-23.5 24.5-35.2 36.8-.3.3-.4.7-.6 1.1l1.1-.1c6.9-3 14.3-5.1 20.5-9.2a490 490 0 0 0 35.2-25.3c9.6-7.6 9.4-8 7.9-15.2-.1-.7-2.5-1.4-3.9-1.4-1.2-.1-2.5.7-3.9 1zM391.4 63.8l-.2-.5c-.2.1-.5.2-.6.4l-28.8 33.4c-.2.2-.2.4-.3.7l.7-.5 24.5-27.4c1.7-2 3.1-4.1 4.7-6.1zm15.2 53.3 2.5-1.8 15.3-13.3a36 36 0 0 0 2.1-1.9c-1 .2-2.4.1-3.1.7a857.4 857.4 0 0 0-17 15.8l-.2.5c.1.1.2 0 .4 0zm37.2-19.6c-.8.2-1.9.1-2.3.5-2.5 3.1-4.7 6.4-7.1 9.6-.2.3-.2.7-.2 1.1.4-.1.9-.1 1.1-.4l9.2-8c.7-.6 1.1-1.5 1.7-2.2l-2.4-.6zm37.6-.9v.2h-7c-.4 0-.8.3-1.2.5.2.2.4.6.6.6 4.4.3 8.8.7 13.3.8.7 0 1.4-1.2 2.2-1.8l-2.4-.3h-5.5zm32.1 5.3 5.1-4.8c-.5-.2-1.2-.8-1.5-.7l-8 4.6 4.4.9zm15 .8 4.5-5.8c-.2-.2-.6-.6-.7-.5l-7.2 5.2 3.4 1.1zm-26.8-2.2 5.5-3.3c-.3-.1-.7-.4-.9-.3a236 236 0 0 0-7.6 2.9l3 .7zm-155.6 9.7c-.7.1-1.1.1-1.3.3l-6.1 6.6a60.9 60.9 0 0 0-3.1 4c1.2-1 2.5-1.9 3.5-3 2.3-2.4 4.4-5 7-7.9zm147.4-6.4-5.8 5.5c-.3.3-.4.7-.5 1.1l1.2-.4 6.3-4.2 1.3-1-2.5-1zm-7-13.3-3.7 1.2c1.1.2 2.2.5 3.3.5l5.6-.5a70 70 0 0 0-5.2-1.2zm44.6 15.6-1 2.5s.6.5.8.4c1.2-.3 2.3-.8 3.4-1.2l-3.2-1.7zm-400.3 42.4 8.2-7.8h.9c-.2.7-.3 1.4-.6 2l-2.6 3.7c1.3-1.1 2.7-2 3.7-3.3 2.2-2.8 4.3-5.7 6.2-8.7.3-.4-.1-1.4-.4-2.1l-2.8-6.2-.3-.9-.9.6c-2.6.8-5.5 2.7-7.6 2-1.4-.4-2.6-4.7-2.2-7 1.5-8.4 8.4-12.7 14.4-17.4.7-.6 3.4.1 3.9.9.7 1.1.1 3-.1 4.5-.1.6-.4 1.2-.6 1.7l1.4-1 4.3-2.4c-.4 1.9-.4 4.1-1.2 5.8-2 3.9-4.4 7.7-6.6 11.5-.2.3-.3.7-.2.9l1.2 4.2 2.3-2.9c5.9-9 11.6-18.2 17.8-27 3.7-5.2 3.8-7.5-3.2-15-3.5-3.6-8.2-6-12.2-9.1-2.8-2.2-5.7-4.4-8.1-7-.7-.7-.3-2.9.2-4.1.2-.5 2.4-.6 3.3-.1 2.4 1.2 5 2.3 6.7 4.3 7.4 8.3 16.4 6.4 25.7 4.9 7.5-1.2 8.5-7.9 11.8-12.4 9.8-13.4 18.9-27.3 28.6-40.7 3.4-4.6 7.2-9.6 12.1-12.2 6.7-3.7 14.3-6 21.8-7.6 4.6-1 10-.5 14.5.9 1.7.5 3.5 5.7 2.8 8.1a61.1 61.1 0 0 1-21.5 30.7A214.4 214.4 0 0 1 192 74.7c-3.2 1.3-5.3 5.5-7.8 8.5-1.1 1.3-1.6 3.1-2.8 4.2-5.2 4.8-2 10.2-1.4 15.4.1 1 .3 2.1-.1 2.9-.8 1.5-2.1 2.8-3.2 4.2l-.5-4.4v-.6l-1-6.6-3.8 4.7-7.4 10.8-.9 1.8c.7 0 1.4.2 2.1.1 6.8-1 13-3 18-8.4 3.4-3.8 8-6.5 12.2-9.5.6-.4 2.7.2 2.9.7.4 1.1.3 3-.3 3.6-5.1 4.1-10.8 7.6-15.6 12-4.2 3.8-7.6 8.6-11.2 13-.4.4-.2 1.3-.3 2 .7-.1 1.5 0 1.9-.4l21.1-15.4c3.6-2.7 7.1-5.6 10.9-8 1.7-1.1 4.1-1.1 6.1-1.6-.8 1.9-1.3 4-2.5 5.7-2.1 2.8-4.6 5.4-6.8 8.1-.3.4-.4 1-.6 1.5l1.2-.8c5.8-4.1 11.5-8.4 17.4-12.3.8-.5 2.6.5 3.9.8 1 .2 2.2.8 2.9.4 3.5-1.8 6.7-3.9 10.2-5.7.8-.4 2.8-.3 2.9.1.4 1.2.8 3 .2 3.8-3.7 5-7.7 9.8-11.6 14.6-.7.8-1.2 1.7-1.8 2.6l2.9-1.3c.4-.2.6-.8.9-1l3.9-1.7.7.8c-.9 1-1.9 2.1-2.9 2.9-1.8 1.6-3.6 3.3-5.7 4.4-1.8 1-4 1.2-6 1.7.5-2.3.2-5.2 1.5-6.9 3.7-4.8 8-9 12.1-13.5.2-.2.1-.7.2-1.1-.4 0-.9-.1-1.2.1l-15.2 13.3c-2.9 2.7-5.5 5.6-8.4 8.3-.4.4-2.4.1-2.5-.2-.3-.9-.4-2.3.2-2.9 3.1-3.8 6.4-7.4 9.5-11.1.9-1.1 1.4-2.7 2.1-4-1.2.6-2.6 1.1-3.7 1.9l-16.5 13.9a59.6 59.6 0 0 1-6.5 4.7c-.7.4-2.3.3-2.9-.3-.5-.5-.5-2.2 0-2.8 4.2-5.2 8.7-10.2 13-15.3l.7-1.1c-.4.1-1 .2-1.3.4-5.4 4.7-10.6 9.6-16.1 14a60 60 0 0 1-10.9 7.1c-1.7.8-5 .4-6.2-.8-1.1-1.1-.7-4.1-.3-6.1.3-1.6 1.7-3.1 2.5-4.6l1.2-2.3c-1 .1-1.9.3-2.9.3-8.6.2-11.6 6.4-15.5 12.9-4.4 7.4-10.7 13.8-16.4 20.4-.5.6-2.3.6-3 .2-1-.8-1.4-2.1-2.8-4.3zM271.1 6.9c-1.1-1.2-1.9-2.6-2.5-2.5-8.5 1.2-17.8.8-25.1 4.4a69.3 69.3 0 0 0-22.2 18.5c-10 12.7-18.4 26.7-27.4 40.3-.3.5-.4 1.1-.6 1.6.6 0 1.2.1 1.7-.2 7-3.4 14.1-6.5 20.9-10.2 17.3-9.3 34.1-19.3 46.1-35.4.7-1 .5-2.8.7-4.2v-.5l1-.3c.7-.1 1.9.1 2-.3 1.9-3.6 3.6-7.3 5.4-11.2zm-102 72.6v-.3l-2.2.4c.2.5.3 1.1.7 1.5l6.4 7.6c.3.3 1.5.4 1.7.2 2.3-3.3 4.4-6.7 6.6-10.1l.4-1.2-1.3.1-12.3 1.8zm-35.8 43.9c2.9.6 4.1 1.2 4.5.9 3.6-3.1 7.2-6.3 10.3-9.8.5-.6-1.1-3.1-1.7-4.7-.1-.1-.7-.2-.8-.1l-12.3 13.7z"/><path d="m8.4 112.4-1.7 8.4c-1 5.1-2.2 10.2-3 15.3-.2 1.5.3 4.4 1.1 4.6 1.9.6 4.7.7 6.1-.3 6.4-4.7 12.6-9.7 18.6-14.9 7.4-6.5 15.2-12.9 21.6-20.4 6.6-7.7 11.7-16.8 17.7-25.1 7-9.5 14.2-18.7 21.4-28l17-21.4c1.1-1.4 2.4-2.6 3.8-3.7.5-.4 1.9-.6 2.3-.2.7.6 1.5 1.9 1.3 2.5-2.2 6.1-3.6 12.9-7.3 18a633 633 0 0 1-30.1 37.5c-6.6 7.7-14.9 14-20.7 22.1-6 8.4-10 18.3-14.8 27.6-.1.3 1 1.7 1.3 1.6a44.7 44.7 0 0 0 24.3-18.7c5.9-9.2 13-17.7 20.2-26.1 5.8-6.8 12.6-12.8 18.9-19.2 2.4-2.4 4.5-5 7-7.2.7-.6 2.3-.2 3.4-.3 0 1.2.6 2.8 0 3.6-5 6.9-9.9 13.8-15.4 20.2-7.7 9-15.9 17.5-23.9 26.2-2.8 3.1-6 5.9-8.4 9.2-1.2 1.6-1 4.2-1.4 6.4 2.1.3 4.3 1 6.4 1 8.2 0 7.9-7.9 11.5-12.3 5-6.2 11-11.6 16.7-17.2.5-.5 2.4.4 3.6.6l-1.8 1.9L87.4 124c-.6.7-.7 1.9-1.1 2.8 1.1-.4 2.5-.5 3.2-1.3 5.2-5.1 10.2-10.3 15.2-15.4 1.2-1.3 2.3-2.7 3.6-3.8.5-.4 1.5-.1 2.3-.2 0 1.1.5 2.5 0 3.2-3.3 4.8-6.9 9.5-10.4 14.3-1.2 1.6-2.1 3.3-3.2 5 1.4-1.2 3-2.3 4.2-3.7l22.3-24.7c.5-.6 1.8-.5 2.7-.8.2 1 .9 2.4.5 3-4 7-8.3 13.9-12.4 20.8l-.4.6c.3 0 .6.1.9-.1.7-.4 1.4-.7 2-1.2l20-20.4c.6-.6 1.9-.4 2.8-.6 0 1.2.5 2.8-.1 3.5L124 121.6c-1.4 1.5-2.5 3.3-3.6 5-.2.4-.3 1.1 0 1.4.2.3.9.3 1.4.4l.8-.2 6.3-.9c-2.1 1.6-4 3.8-6.3 4.5-1.7.5-4-1.1-6-1.8-.9-.3-1.7-.9-2.7-1.1-1.4-.3-4.1-.2-4.2-.5-.3-1.9.1-3.9.3-5.8.1-.8.4-1.5.7-2.3l-1.6 1.6c-4.2 3.9-8.4 7.8-12.8 11.4-.9.7-3 .5-4.3.1-.5-.2-.4-2.2-.6-3.4v-.7l-.7.3c-6.2 2.2-12.4 4.7-18.7 6.6-4.4 1.3-7-1.7-9-5.2-.3-.5-1.8-.8-2.3-.5-5.7 3.2-11 7.1-17 9.5-4.3 1.7-7.1-1.5-5.8-6 1.2-4.3 3-8.5 4.5-12.7l.5-1.8c-.6.3-1.2.6-1.7 1.1-9 7.5-17.8 15.3-27.2 22.3-2.6 1.9-8.7 3.1-10.1 1.7a15.2 15.2 0 0 1-3.7-11.4c.9-6.2 3.8-12.1 6.1-18.1.2-1.1 1.4-1.9 2.1-2.7zm101.4-76.6-.5-.9-.8.5L99 47.7 71 84.2c-.4.5-.5 1.1-.8 1.6.5-.3 1.2-.6 1.6-1 10.1-12 20.3-23.8 30.2-36 3.1-4 5.2-8.7 7.8-13zM97.1 87.2l-.2-.5-1.1.7L86.5 98l-.7 1.3 1.4-1 7-7.9 2.9-3.2zm161.4 17.2c2.3-.6 4.5-1.4 6.8-1.9.6-.1 1.6.1 1.9.6.3.5.4 1.6.1 2.1l-5.8 8-.6 1 1.2-.4c5.6-3.7 11.2-7.6 16.9-11.1 2.2-1.3 5.1-3.8 6.6 1 0 .1 1.2 0 1.6-.3 2.7-1.4 5.2-3.1 8-4 .8-.2 3.6 2.9 3.4 3.2-2.8 4.3-5.9 8.5-9.1 12.6-2.6 3.4-5.3 6.6-8 9.9-.5.6-1.2 1-1.8 1.4-.3-.9-1.1-2-.8-2.5a158 158 0 0 1 6.9-11.1c2-2.8 4.4-5.2 6.6-7.8.2-.3.2-.7.3-1.1l-1.2.4-18.2 15.9c-2 1.7-3.9 3.4-6.1 4.8-.6.4-2.4.1-2.5-.2-.3-1-.4-2.5.2-3.1 3.6-4 7.4-7.8 11.1-11.8.9-.9 1.4-2.1 2.2-3.2-1.3.6-2.8 1.1-3.9 2l-23.1 19c-.5.4-1.6.6-1.9.3a5.7 5.7 0 0 1-1.5-2.3c-.2-.5.1-1.1.2-1.6l-1.8 1.1c-.5.3-.9.9-1.4 1l-9.1 1.5c.5-2.7 0-6.3 1.5-7.9 5.9-5.8 12.4-11 18.8-16.3.5-.4 1.5-.4 2.3-.5-.1.4 0 .9.2 1.3zm-1.8 4.2c-.3 0-.9-.1-1.2.2l-16.3 14.8c-.2.2-.1.6-.2.8l.9-.4 18-14c.3-.2.4-.8.6-1.2l-1.8-.2zm52.8-7.5c1.1.7 3.9 2.1 3.8 2.6-.8 2.6-2.3 5.1-3.6 7.5h-.7l.1-1.5.2-2.8c-.9.1-1.8-.1-2.6.3a35 35 0 0 0-15.9 16.1c-.4.7-.1 1.9-.1 2.8l2.2-.4c10.1-1.1 14.5-9.2 20.4-15.8 7.2-8.1 14.7-16 22.4-23.6 4.5-4.4 9.9-7.9 14.4-12.3 3.3-3.2 5.8-7.1 8.9-10.6.5-.6 1.8-.6 2.7-.9 0 1.2.4 2.7-.2 3.5-3.8 5.3-7.4 10.8-11.8 15.6a1628 1628 0 0 1-34.2 35.4c-4 4.1-8.5 7.6-12.6 11.6-.8.8-.7 2.6-1 3.9l-.1 1.2c-.8.1-1.9.4-2.4.1-.7-.5-1.5-1.7-1.3-2.3.9-3.6-.7-2.2-2.7-1.9-2.5.3-7.2-.4-7.3-1-.3-3.4-.7-8 1.1-10.3 4.8-5.9 10.8-10.9 16.4-16.2.7-.6 2.1-.5 3.9-1zm30.3-10.6-.8-1.3-.7.4-17 16.9c-.2.2-.3.7-.4 1l.9-.5c4.4-4.3 8.8-8.7 13.3-12.9 1.4-1.4 3.2-2.5 4.7-3.6zm-319.6 0L15 99.1c-.5.9-.8 2.1-1.4 2.9-.8 1-1.9 1.7-2.9 2.5 0-1.2-.4-2.7 0-3.7 1.7-3.5 3.5-6.9 5.5-10.2.4-.7 1.8-.9 2.8-1.1.4 0 .9.7 1.2 1zm127.4 2.3 3.5 5.3c.1.2-1.1 1.4-1.1 1.3-1.5-1.1-3-2.2-4.4-3.5-.1-.1.8-1.3 2-3.1z"/><path d="M8.4 112.4c.1-2.1.2-4.1.5-6.2 0-.3 1.1-.7 1.4-.6.5.3 1.1 1.1 1 1.4-.9 1.9-1.9 3.6-2.9 5.4zm17-24.2c-.7.5-1.1 1.1-1.4 1-.4-.2-.8-.7-1.1-1.1-.1-.2.5-.9.7-.9.6.2 1 .6 1.8 1z"/></svg>
